<?xml version="1.0" standalone="no"?><!DOCTYPE svg PUBLIC "-//W3C//DTD SVG 1.1//EN" "http://www.w3.org/Graphics/SVG/1.1/DTD/svg11.dtd"><svg class="icon" height="512" viewBox="0 0 1024 1024" version="1.1" xmlns="http://www.w3.org/2000/svg"><path d="M958.651155 511.99693c0 246.677169-199.975521 446.651666-446.651667 446.651666S65.347822 758.674099 65.347822 511.99693c0-246.670006 199.975521-446.645526 446.651666-446.645526s446.651666 199.975521 446.651667 446.645526z" fill="#FF6666" /><path d="M460.325595 430.048523v-25.356504c-0.60989-2.428306-2.093684-3.955078-4.507664-4.536317l-2.732227 7.240915v19.017122l5.436826 5.466502 1.803065-1.831718zM453.085704 439.121156v19.017122l2.732227 7.240915c2.413979-0.62524 3.925403-2.093684 4.507664-4.536316v-25.356505l-1.803065-1.831718-5.436826 5.466502zM500.222257 426.412716l5.409197 5.466502 1.831718-1.831718v-25.356504c-0.610914-2.428306-2.122337-3.955078-4.53734-4.536317l-2.704598 7.240915v19.017122h0.001023zM498.389516 407.395594l2.704598-7.240915h-27.072589c-2.412956 0.610914-3.924379 2.12336-4.536316 4.536317l7.269567 2.704598h21.63474zM500.222257 439.121156v19.017122l2.704599 7.240915c2.413979-0.610914 3.926426-2.093684 4.537339-4.536316v-25.356505l-1.831718-1.803065-5.41022 5.437849zM476.639143 458.123952l-7.240915 2.718925c0.610914 2.442632 2.093684 3.911076 4.53734 4.536316h27.158546l-2.704598-7.255241H476.639143zM476.639143 439.121156l-5.437849-5.466502-1.830695 1.831718v23.523763l7.268544-2.703575v-17.185404zM476.639143 426.412716V409.212986l-7.268544-2.718925v23.554462l1.830695 1.831718 5.437849-5.467525zM523.747044 472.620108v-14.496156h-7.239892v14.496156l3.605108 3.619434 3.634784-3.619434zM563.585377 458.123952l2.733251 7.255241c2.413979-0.62524 3.926426-2.109034 4.53734-4.536316v-25.356505l-1.804089-1.831718-5.466502 5.466502v19.002796zM540.031938 426.412716V409.212986l-7.241938-2.718925v23.554462l1.832742 1.831718 5.409196-5.467525zM540.031938 458.123952l-7.212262 2.718925c0.581238 2.442632 2.093684 3.911076 4.476965 4.536316h27.189246l-2.704599-7.255241h-21.74935zM540.031938 439.121156l-5.409196-5.466502-1.832742 1.831718v23.523763l7.241938-2.703575v-17.185404zM564.48691 407.395594l2.734274-7.240915h-29.80584c-2.413979 0.610914-3.926426 2.12336-4.537339 4.536317l7.269567 2.704598h24.339338zM567.221184 432.766424l-3.635807-3.619434h-23.553439l-3.606131 3.619434 3.606131 3.635807h23.553439l3.635807-3.635807zM520.460184 624.876814h-1.744737v-49.840129c0-4.420683-2.994194-7.997138-6.715959-7.997138s-6.746658 3.576455-6.746657 7.997138v49.840129h-1.803066c-10.438747 0-18.930141 8.433066-18.930141 18.887162v136.190799c0 10.438747 8.491395 18.902512 18.930141 18.902512h17.010419c10.438747 0 18.902512-8.463766 18.902512-18.902512V643.763976c0-10.454096-8.462742-18.887163-18.902512-18.887162z" fill="#FFFFFF" /><path d="M380.795261 273.720082c-3.228531 8.403391-4.973268 17.534352-4.973268 27.079752v163.590845c0 0.828878 0.086981 1.62808 0.116657 2.442632-0.059352 1.599428-0.116657 3.197832-0.116657 4.826935v42.571585c0 63.101153 36.988426 116.169813 95.232968 131.61048v-2.078335c0-13.244652 9.800203-24.26566 22.537295-26.200732v-45.260833c0-9.04398 7.500834-18.406209 18.406209-18.406209 9.654894 0 18.406209 8.490372 18.406209 18.406209v45.260833c12.737092 1.904373 22.537296 12.925381 22.537295 26.200732v2.066055c58.244542-15.442714 95.232968-68.511373 95.232968-131.626853v-42.541908c0-1.64343-0.060375-3.257184-0.11768-4.826936 0.029676-0.814552 0.11768-1.614777 0.11768-2.442632V300.799834h-0.029675c0-41.793872-33.876552-75.656097-75.633585-75.656097h-121.057123a75.356268 75.356268 0 0 0-42.802852 13.267164m-14.829753 12.46694a81.416288 81.416288 0 0 0-4.739955 7.161097m196.225104 312.926012h-12.300141c-8.375761 0-15.121396-6.791683-15.121395-15.121396 0-8.345062 6.776334-15.150048 15.121395-15.150048h12.300141c8.346085 0 15.121396 6.803963 15.121395 15.150048 0 8.329712-6.77531 15.121396-15.121395 15.121396z m18.638499-82.948177c0 7.662517-6.628978 13.886265-14.82873 13.886265H436.947142c-8.200776 0-14.830777-6.223748-14.830777-13.886265V309.639153c0-7.668657 6.630001-13.892405 14.830777-13.892405h152.169725c8.200776 0 14.82873 6.223748 14.82873 13.892405v178.37762z" fill="#FFFFFF" /><path d="M585.948711 239.195777H464.92024a75.405387 75.405387 0 0 0-42.803875 13.260002M394.257877 280.000112a75.386968 75.386968 0 0 0-5.000897 27.065426v216.848816s2.732228 26.085098 13.95892 49.740868c14.335497 30.314423 46.147016 48.632627 46.147016 48.632627m-42.077328-365.128955a75.213006 75.213006 0 0 0-4.738931 7.153934" fill="#FFFFFF" /></svg>